HIERARCHY
ROOT Hips
{
	OFFSET 0.00 0.00 0.00
	CHANNELS 6 Xposition Yposition Zposition Xrotation Yrotation Zrotation
	JOINT Spine
	{
		OFFSET 0.00000 1.70439 2.55658
		CHANNELS 3 Xrotation Yrotation Zrotation
		JOINT Spine1
		{
			OFFSET 0.00000 0.59193 3.35699
			CHANNELS 3 Xrotation Yrotation Zrotation
			JOINT Spine2
			{
				OFFSET 0.00000 0.29710 3.39581
				CHANNELS 3 Xrotation Yrotation Zrotation
				JOINT Spine3
				{
					OFFSET 0.00000 0.00000 3.40878
					CHANNELS 3 Xrotation Yrotation Zrotation
					JOINT Neck
					{
						OFFSET 0.00000 -1.27828 8.94804
						CHANNELS 3 Xrotation Yrotation Zrotation
						JOINT Head
						{
							OFFSET 0.00000 -0.81390 4.61586
							CHANNELS 3 Xrotation Yrotation Zrotation
							End Site
							{
								OFFSET 0.00000 0.00001 5.51796
							}
						}
					}
					JOINT RightShoulder
					{
						OFFSET -1.18875 -1.98124 6.41925
						CHANNELS 3 Xrotation Yrotation Zrotation
						JOINT RightArm
						{
							OFFSET -5.90412 0.00000 0.00000
							CHANNELS 3 Xrotation Yrotation Zrotation
							JOINT RightForeArm
							{
								OFFSET -11.94674 0.00000 0.00000
								CHANNELS 3 Xrotation Yrotation Zrotation
								JOINT RightHand
								{
									OFFSET -10.17720 0.00000 0.00000
									CHANNELS 3 Xrotation Yrotation Zrotation
									JOINT RightHandEnd
									{
										OFFSET -2.84518 0.00000 0.00000
										CHANNELS 3 Xrotation Yrotation Zrotation
										End Site
										{
											OFFSET -2.84518 0.00000 0.00000
										}
									}
									JOINT RightHandThumb1
									{
										OFFSET -1.13807 -1.89679 -0.75871
										CHANNELS 3 Yrotation Xrotation Zrotation
										End Site
										{
											OFFSET -2.74823 -0.73639 0.00000
										}
									}
								}
							}
						}
					}
					JOINT LeftShoulder
					{
						OFFSET 1.18875 -1.98124 6.41925
						CHANNELS 3 Xrotation Yrotation Zrotation
						JOINT LeftArm
						{
							OFFSET 5.90412 0.00000 0.00000
							CHANNELS 3 Xrotation Yrotation Zrotation
							JOINT LeftForeArm
							{
								OFFSET 11.94674 0.00000 0.00000
								CHANNELS 3 Xrotation Yrotation Zrotation
								JOINT LeftHand
								{
									OFFSET 10.17720 0.00000 0.00000
									CHANNELS 3 Xrotation Yrotation Zrotation
									JOINT LeftHandEnd
									{
										OFFSET 2.84518 0.00000 0.00000
										CHANNELS 3 Xrotation Yrotation Zrotation
										End Site
										{
											OFFSET 2.84518 0.00000 0.00000
										}
									}
									JOINT LeftHandThumb1
									{
										OFFSET 1.13807 -1.89679 -0.75871
										CHANNELS 3 Yrotation Xrotation Zrotation
										End Site
										{
											OFFSET 2.74823 -0.73639 0.00000
										}
									}
								}
							}
						}
					}
				}
			}
		}
	}
	JOINT RightUpLeg
	{
		OFFSET -3.52662 0.00000 -1.03025
		CHANNELS 3 Xrotation Yrotation Zrotation
		JOINT RightLeg
		{
			OFFSET 0.00001 0.00000 -17.80159
			CHANNELS 3 Xrotation Yrotation Zrotation
			JOINT RightFoot
			{
				OFFSET 0.00001 0.00000 -16.85992
				CHANNELS 3 Xrotation Yrotation Zrotation
				JOINT RightToeBase
				{
					OFFSET 0.00000 -5.42953 -1.97619
					CHANNELS 3 Xrotation Yrotation Zrotation
					End Site
					{
						OFFSET 0.00000 -2.85300 -0.00000
					}
				}
			}
		}
	}
	JOINT LeftUpLeg
	{
		OFFSET 3.52662 0.00000 -1.03025
		CHANNELS 3 Xrotation Yrotation Zrotation
		JOINT LeftLeg
		{
			OFFSET 0.00001 0.00000 -17.80159
			CHANNELS 3 Xrotation Yrotation Zrotation
			JOINT LeftFoot
			{
				OFFSET 0.00001 0.00000 -16.85992
				CHANNELS 3 Xrotation Yrotation Zrotation
				JOINT LeftToeBase
				{
					OFFSET 0.00000 -5.42953 -1.97619
					CHANNELS 3 Xrotation Yrotation Zrotation
					End Site
					{
						OFFSET 0.00000 -2.85300 -0.00000
					}
				}
			}
		}
	}
}
MOTION
Frames: 15
Frame Time:	0.0333333
 -1.0245 -2.5124 44.7074 2.2994 3.3213 174.1674 1.5818 -0.8817 0.2305 1.5242 -1.5244 -0.0998 -2.4475 -1.4923 0.8233 -0.6710 0.4319 0.3765 11.8007 -2.6190 -1.2565 3.5920 2.9198 -0.3340 -3.8354 21.3259 8.5708 -52.2549 0.4686 14.1863 -0.0000 0.0001 65.0925 -7.4682 54.8583 10.5530 0.0000 0.0000 0.0000 0.0000 0.0000 0.0000 18.9363 6.2205 -1.3197 -11.9516 51.5211 7.4583 -0.0000 -0.0000 -39.5091 -6.9441 -22.1236 3.3436 0.0000 -0.0000 0.0000 0.0000 0.0000 0.0000 -2.9359 17.8088 -26.0286 22.3984 0.0000 0.0000 21.6886 -7.7214 -5.7281 -1.3261 0.0000 -0.0000 -7.5477 -6.9506 4.8338 28.7912 0.0000 0.0000 22.7578 9.8588 -0.4902 -10.0010 0.0000 -0.0000
 -1.0543 -2.3620 44.9251 3.4573 3.1518 171.2114 2.4666 -0.8846 0.1510 1.8113 -1.6999 -0.0613 -2.4389 -1.1218 2.1392 -0.7014 0.7341 0.3180 12.0990 -3.0824 -0.2387 3.9959 3.3609 -0.0254 -2.9413 23.2977 9.7647 -42.0299 5.3501 18.7783 -0.0000 0.0001 75.3801 4.6249 53.4690 28.8448 -0.0000 -0.0000 0.0000 -0.0000 -0.0000 0.0000 18.3913 8.5524 -0.6288 -3.4649 58.1000 -1.0557 -0.0000 -0.0000 -37.8431 -7.3036 -23.5984 3.2664 0.0000 0.0000 0.0000 0.0000 -0.0000 0.0000 -3.8977 17.6045 -24.3322 24.2794 0.0000 0.0000 20.9054 -7.8135 -6.4717 -2.8069 0.0000 -0.0000 -6.8844 -6.9869 6.7184 28.3279 0.0000 0.0000 23.2992 9.8999 -2.6434 -11.8559 0.0000 -0.0000
 -0.9952 -2.1673 44.7062 4.0769 2.7604 169.6652 2.4315 -0.7827 0.1423 1.8143 -1.7640 -0.0277 -2.2285 -0.6968 3.1071 -0.5873 1.0954 0.2503 12.8406 -3.9891 0.2052 4.1229 3.3787 -0.0404 -4.3430 24.3728 12.1875 -34.2928 10.0098 23.2300 -0.0000 0.0001 73.9268 24.3041 53.0653 23.7888 -0.0000 -0.0000 -0.0000 -0.0000 -0.0000 0.0000 18.0708 10.5891 -1.2726 1.0841 61.5697 -7.0783 -0.0000 -0.0000 -35.1904 -8.9889 -25.4149 3.1765 0.0000 -0.0000 -0.0000 -0.0000 0.0000 0.0000 -3.7547 16.9649 -26.2791 23.5799 0.0000 0.0000 18.6765 -8.2816 -4.0455 -1.7895 0.0000 -0.0000 -6.6919 -7.3466 7.7409 27.1847 0.0000 0.0000 22.9280 10.5394 -1.6684 -10.5791 0.0000 -0.0000
 -0.8908 -1.9983 44.0322 4.1958 2.3022 169.4158 1.9398 -0.5354 0.1633 1.6349 -1.7038 -0.0303 -2.0783 -0.2814 3.2420 -0.3957 1.3804 0.1519 13.5364 -4.5732 0.1692 4.2432 2.7951 0.0676 -6.5370 25.1858 16.1828 -31.6795 9.4604 26.2933 -0.0000 0.0001 59.9936 16.1474 58.4574 19.4986 0.0000 -0.0000 -0.0000 -0.0000 0.0000 -0.0000 18.6074 11.7689 -2.9754 5.0273 62.4265 -13.1169 -0.0000 -0.0000 -32.4739 -10.9859 -25.9429 2.7043 -0.0000 0.0000 -0.0000 0.0000 -0.0000 0.0000 -3.2901 15.9593 -30.3067 21.3810 0.0000 0.0000 16.7258 -10.3601 0.3345 0.1157 0.0000 0.0000 -7.3242 -7.8201 7.6698 26.1752 0.0000 0.0000 22.7629 11.3199 0.3192 -7.1136 0.0000 -0.0000
 -0.7637 -1.8609 42.8952 4.0837 1.6076 169.2466 1.4270 -0.4153 0.1779 1.4536 -1.5733 -0.0440 -2.0251 -0.0863 3.0625 -0.2440 1.5922 0.0383 13.9404 -4.2347 0.2045 4.4667 1.9489 0.3670 -9.3805 25.7907 21.6590 -38.4866 0.1163 28.7792 -0.0000 0.0000 44.0088 -8.6732 52.9857 15.2211 -0.0000 0.0000 -0.0000 0.0000 -0.0000 -0.0000 19.2740 12.0564 -4.7856 11.3852 61.1066 -20.9960 -0.0000 -0.0000 -30.6788 -12.2368 -25.8669 2.2719 -0.0000 0.0000 -0.0000 0.0000 -0.0000 -0.0000 -3.2346 14.4145 -33.6670 19.0583 0.0000 0.0000 17.9857 -12.5451 4.2046 -0.9106 0.0000 -0.0000 -7.9923 -8.5126 6.9757 25.1815 0.0000 0.0000 24.0429 12.1824 0.3717 -6.3255 0.0000 -0.0000
 -0.6294 -1.7202 41.3390 4.3302 0.6215 168.6952 1.3121 -0.5456 0.1530 1.4070 -1.5141 -0.0621 -1.9183 -0.1146 3.2037 -0.1464 1.7558 -0.0472 14.1205 -3.3377 0.5661 4.4868 1.5057 0.5963 -13.8133 25.2392 27.4882 -54.7671 -16.5129 26.3154 0.0000 0.0000 37.4337 -17.0191 49.8061 -3.5387 -0.0000 0.0000 -0.0000 -0.0000 0.0000 0.0000 19.0924 12.1033 -6.5005 18.5541 57.7545 -28.2451 -0.0000 -0.0000 -30.3448 -12.2208 -26.4621 1.9495 0.0000 0.0000 0.0000 0.0000 -0.0000 -0.0000 -3.5628 12.7388 -33.2555 19.1843 0.0000 0.0000 17.1968 -12.9832 4.5894 -5.5390 0.0000 -0.0000 -8.2943 -9.2977 5.5876 26.1741 0.0000 0.0000 22.8193 13.5291 -0.4368 -11.8948 0.0000 -0.0000
 -0.5288 -1.6117 39.4947 5.4104 -0.5313 168.1009 2.0725 -0.7586 0.0252 1.5852 -1.5244 -0.0901 -1.6206 -0.1171 3.5752 -0.0596 1.9527 -0.0848 13.7877 -3.2125 1.0014 4.1073 1.8112 0.9743 -16.6964 22.9928 29.9470 -61.8873 -25.8168 23.9763 -0.0000 0.0000 38.7256 -12.8511 56.8136 -11.3044 0.0000 0.0000 -0.0000 -0.0000 -0.0000 0.0000 17.6071 12.9304 -8.0725 23.4313 52.6954 -31.7718 -0.0000 -0.0000 -31.5547 -10.9472 -26.5825 1.4490 0.0000 -0.0000 0.0000 -0.0000 0.0000 -0.0000 -4.6594 11.5822 -28.0232 24.7250 0.0000 0.0000 6.8160 -12.2185 -0.2144 -9.5052 0.0000 -0.0000 -9.0782 -9.9534 3.9133 32.4186 0.0000 0.0000 13.6138 14.7050 1.0301 -19.8464 0.0000 -0.0000
 -0.5076 -1.6182 37.4834 6.5521 -1.5815 167.3304 3.4606 -1.0080 -0.1464 1.8533 -1.4234 -0.0874 -1.4797 0.1974 3.8119 -0.0114 2.0982 -0.1314 12.1918 -3.9697 1.3735 4.0804 1.9829 1.8237 -14.1278 21.7029 27.8343 -51.5477 -21.6993 30.7379 -0.0000 0.0000 46.8235 -15.2372 56.0668 3.6181 0.0000 0.0000 0.0000 -0.0000 0.0000 0.0000 15.4743 14.2773 -8.7666 24.5934 48.1929 -31.4516 -0.0000 -0.0000 -34.1750 -7.6380 -24.9817 0.6763 0.0000 0.0000 0.0000 0.0000 0.0000 0.0000 -8.1905 10.8282 -21.1160 35.7076 0.0000 0.0000 -10.4211 -9.4873 -7.9133 -7.2290 0.0000 -0.0000 -11.3542 -10.6999 3.4096 43.1330 0.0000 0.0000 -2.2509 13.7929 4.7835 -20.6280 0.0000 -0.0000
 -0.5850 -1.6939 35.6920 7.2766 -2.0509 166.1683 4.6689 -0.8598 -0.3078 2.0117 -1.2192 -0.0745 -1.3485 0.8108 3.7049 0.0345 2.1282 -0.2330 9.7934 -4.6200 1.7016 4.5250 1.5513 3.0363 -6.6028 20.8331 24.6352 -45.1211 -11.2329 34.6686 -0.0000 0.0001 62.5042 9.0330 43.6638 7.0556 0.0000 0.0000 -0.0000 0.0000 0.0000 -0.0000 13.9904 15.2785 -8.5314 21.6068 46.6252 -28.4646 -0.0000 -0.0000 -37.2725 -2.7327 -23.3343 0.1515 -0.0000 -0.0000 0.0000 0.0000 -0.0000 0.0000 -13.2953 10.3982 -15.5257 47.3028 0.0000 0.0000 -23.8883 -6.0564 -14.1326 -1.1375 0.0000 -0.0000 -13.6882 -11.2392 4.0305 52.4353 0.0000 0.0000 -16.9447 11.1791 8.1864 -13.8188 0.0000 -0.0000
 -0.7129 -1.6953 34.6084 8.0810 -2.2224 165.3707 5.2679 -0.3174 -0.4992 2.0718 -0.9956 -0.0658 -0.7862 1.2359 3.1967 0.1317 2.1429 -0.3704 8.1895 -4.6543 1.9850 4.8031 1.2007 4.0649 1.7206 19.4863 21.2455 -41.0243 -7.2740 35.2175 -0.0000 0.0001 84.0184 33.6914 37.0634 3.4208 -0.0000 -0.0000 -0.0000 -0.0000 -0.0000 0.0000 13.9113 15.4250 -8.2672 16.5670 47.9108 -24.7069 -0.0000 -0.0000 -39.3543 0.4042 -23.9205 0.2841 0.0000 -0.0000 0.0000 -0.0000 -0.0000 0.0000 -16.5173 10.2020 -12.1842 54.5454 0.0000 0.0000 -29.2972 -4.1281 -17.2437 2.7415 0.0000 0.0000 -14.1232 -11.2681 4.5207 56.6300 0.0000 0.0000 -25.6228 9.2168 9.7024 -7.1209 0.0000 -0.0000
 -0.8260 -1.5739 34.3276 8.8494 -2.6334 165.6801 5.2736 0.0696 -0.5865 2.0570 -0.8466 -0.0747 -0.1589 1.2738 2.7661 0.2575 2.0480 -0.4208 7.9206 -4.0569 2.1305 4.9743 0.9670 4.1435 7.2444 15.8661 18.5282 -27.5974 -6.6106 36.0632 -0.0001 0.0001 102.7360 46.5063 29.6407 10.2482 0.0000 -0.0000 0.0000 -0.0000 0.0000 0.0000 14.5999 14.9261 -8.2994 14.5693 49.8168 -23.5482 -0.0000 -0.0000 -39.4927 -0.8741 -25.6622 0.5453 0.0000 -0.0000 0.0000 -0.0000 0.0000 -0.0000 -16.2819 10.0164 -11.4165 56.0585 0.0000 0.0000 -29.8944 -3.4449 -17.7779 3.0385 0.0000 0.0000 -12.8969 -11.1399 4.2062 56.4916 0.0000 0.0000 -28.6664 8.7388 9.8570 -5.1325 0.0000 -0.0000
 -0.9158 -1.3888 34.6364 9.2029 -2.9172 166.8592 4.9570 0.3997 -0.5337 1.9617 -0.7187 -0.0268 0.0586 1.1248 3.0427 0.3643 1.7087 -0.2471 8.0286 -3.0404 1.9923 5.3184 0.2113 2.9310 11.1505 9.3242 15.8328 -6.0559 -6.0761 37.5887 -0.0001 0.0001 110.6317 47.6689 20.7514 13.2301 -0.0000 0.0000 0.0000 -0.0000 -0.0000 0.0000 14.9703 14.6056 -8.0919 19.0396 49.8504 -27.4517 -0.0000 -0.0000 -38.0709 -4.6207 -25.0704 0.8536 -0.0000 -0.0000 0.0000 0.0000 -0.0000 0.0000 -13.7952 9.9730 -12.6707 53.2468 0.0000 0.0000 -29.2539 -2.9790 -17.3020 2.8040 0.0000 0.0000 -11.2274 -10.8947 3.7111 53.9863 0.0000 0.0000 -28.2071 8.7973 9.5563 -5.5407 0.0000 -0.0000
 -1.0020 -1.1948 35.2977 9.0623 -2.6113 168.4552 4.4450 0.9382 -0.4101 1.7997 -0.6466 0.0582 0.1282 1.0829 3.9658 0.4434 1.1770 0.1087 7.4661 -1.4443 1.5180 5.5613 -1.1182 0.9401 15.8120 -0.1147 13.8567 12.4154 -8.1262 35.1759 -0.0001 0.0001 105.1660 38.3216 20.4030 12.6008 0.0000 0.0000 0.0000 -0.0000 -0.0000 0.0000 14.9715 14.7803 -7.3457 26.9456 47.2279 -33.8853 -0.0000 -0.0000 -36.4355 -6.3824 -20.9638 1.5348 -0.0000 0.0000 -0.0000 -0.0000 -0.0000 0.0000 -10.6387 10.2758 -15.1652 47.9243 0.0000 0.0000 -27.5418 -2.7667 -16.7538 3.8214 0.0000 0.0000 -9.4347 -10.2943 3.6637 49.5027 0.0000 0.0000 -25.8215 8.7395 8.8135 -4.9820 0.0000 -0.0000
 -1.1038 -0.9952 36.0895 8.5330 -1.8066 170.7809 3.6057 1.5383 -0.2787 1.5935 -0.5491 0.1325 0.4830 0.9048 4.3440 0.4610 0.6604 0.4719 6.6294 0.9217 0.7641 5.3779 -2.1421 -0.6808 21.3557 -10.7808 12.3646 18.8282 -15.5605 29.9158 -0.0000 0.0001 88.8658 25.2187 25.1901 11.8680 0.0000 0.0000 -0.0000 0.0000 0.0000 -0.0000 15.5662 14.6892 -6.6244 33.3431 43.9386 -38.7780 -0.0000 -0.0000 -35.6233 -4.4944 -16.0941 1.6176 -0.0000 0.0000 -0.0000 0.0000 -0.0000 0.0000 -7.1581 10.9089 -18.9884 41.2242 0.0000 0.0000 -24.3273 -3.1843 -15.7091 4.5837 0.0000 0.0000 -7.2843 -9.2674 3.4655 42.8726 0.0000 0.0000 -22.3799 8.8561 7.3544 -3.9641 0.0000 -0.0000
 -1.2365 -0.8070 36.7801 7.6848 -0.9097 174.1702 2.5630 1.9859 -0.2252 1.3225 -0.3024 0.1286 0.8888 0.1820 3.2030 0.3451 0.3928 0.6854 6.4745 2.8984 -0.2514 4.9454 -1.8922 -0.8971 25.1038 -18.8545 10.2253 13.2906 -28.7575 24.9544 -0.0000 0.0001 68.3011 11.2417 31.9513 2.2375 -0.0000 0.0000 -0.0000 0.0000 -0.0000 -0.0000 17.3794 13.3231 -6.4496 37.1775 42.4127 -41.4294 -0.0000 -0.0000 -35.8642 -1.4413 -13.3861 0.7920 -0.0000 0.0000 -0.0000 0.0000 -0.0000 0.0000 -3.4142 11.4250 -24.3661 34.1412 0.0000 0.0000 -20.8318 -4.0226 -13.8365 4.2050 0.0000 0.0000 -5.2624 -8.1093 2.1492 35.5620 0.0000 0.0000 -18.8125 9.3426 5.5748 -3.8305 0.0000 -0.0000
